<svg xmlns="http://www.w3.org/2000/svg" xmlns:xlink="http://www.w3.org/1999/xlink" width="300" zoomAndPan="magnify" viewBox="0 0 224.87999 37.5" height="50" preserveAspectRatio="xMidYMid meet" version="1.0"><defs><g/></defs><g fill="#000000" fill-opacity="1"><g transform="translate(62.461123, 22.655259)"><g><path d="M 8.511719 0 L 14.1875 0 C 13.949219 -0.195312 13.800781 -0.671875 13.800781 -1.796875 L 13.800781 -13.367188 C 13.800781 -14.492188 13.949219 -14.96875 14.1875 -15.164062 L 8.511719 -15.164062 C 8.75 -14.96875 8.902344 -14.492188 8.902344 -13.367188 L 8.902344 -7.625 L 5.71875 -7.625 L 5.71875 -13.367188 C 5.71875 -14.492188 5.847656 -14.96875 6.109375 -15.164062 L 0.433594 -15.164062 C 0.671875 -14.96875 0.824219 -14.492188 0.824219 -13.367188 L 0.824219 -1.796875 C 0.824219 -0.671875 0.671875 -0.195312 0.433594 0 L 6.109375 0 C 5.847656 -0.195312 5.71875 -0.671875 5.71875 -1.796875 L 5.71875 -7.539062 L 8.902344 -7.539062 L 8.902344 -1.796875 C 8.902344 -0.671875 8.75 -0.195312 8.511719 0 Z M 8.511719 0 "/></g></g></g><g fill="#000000" fill-opacity="1"><g transform="translate(77.083226, 22.655259)"><g><path d="M 5.871094 -0.0664062 L 5.71875 -0.0664062 L 5.71875 -13.367188 C 5.71875 -14.492188 5.847656 -14.96875 6.109375 -15.164062 L 0.433594 -15.164062 C 0.671875 -14.96875 0.824219 -14.492188 0.824219 -13.367188 L 0.824219 -1.796875 C 0.824219 -0.671875 0.671875 -0.195312 0.433594 0 L 12.261719 0 L 12.5625 -3.984375 C 11.199219 -1.558594 8.644531 -0.0664062 5.871094 -0.0664062 Z M 5.871094 -0.0664062 "/></g></g></g><g fill="#000000" fill-opacity="1"><g transform="translate(90.080658, 22.655259)"><g/></g><g transform="translate(94.413139, 22.655259)"><g><path d="M 20.234375 -15.164062 C 22.09375 -14.144531 23.15625 -12.109375 22.570312 -10.074219 L 19.691406 -0.109375 L 15.660156 -13.929688 C 15.402344 -14.839844 15.445312 -15.121094 15.597656 -15.164062 L 9.988281 -15.164062 C 10.136719 -15.121094 10.3125 -14.730469 10.636719 -13.667969 L 12.347656 -7.753906 L 10.136719 -0.109375 L 6.109375 -13.929688 C 5.847656 -14.839844 5.890625 -15.121094 6.042969 -15.164062 L 0.433594 -15.164062 C 0.585938 -15.121094 0.757812 -14.730469 1.105469 -13.667969 L 5.046875 0 L 10.179688 0 L 12.390625 -7.625 L 14.601562 0 L 19.734375 0 L 24.132812 -15.164062 Z M 20.234375 -15.164062 "/></g></g></g><g fill="#000000" fill-opacity="1"><g transform="translate(118.978276, 22.655259)"><g><path d="M 6.953125 -15.164062 C 3.359375 -15.164062 0.433594 -12.238281 0.433594 -8.644531 L 0.433594 -6.519531 C 0.433594 -2.925781 3.359375 0 6.953125 0 C 10.550781 0 13.472656 -2.925781 13.472656 -6.519531 L 13.472656 -8.644531 C 13.472656 -12.238281 10.550781 -15.164062 6.953125 -15.164062 Z M 8.578125 -1.691406 C 8.558594 -0.800781 7.839844 -0.0859375 6.953125 -0.0859375 C 6.066406 -0.0859375 5.328125 -0.800781 5.328125 -1.691406 L 5.328125 -13.472656 C 5.328125 -14.363281 6.066406 -15.078125 6.953125 -15.078125 C 7.839844 -15.078125 8.558594 -14.363281 8.578125 -13.472656 Z M 8.578125 -1.691406 "/></g></g></g><g fill="#000000" fill-opacity="1"><g transform="translate(132.885525, 22.655259)"><g><path d="M 2.902344 -13.0625 L 15.488281 0 L 15.488281 -15.617188 L 11.503906 -15.617188 C 13.90625 -14.253906 15.402344 -11.417969 15.402344 -7.496094 L 15.402344 -7.019531 L 6.78125 -15.617188 L 0.433594 -15.617188 L 2.835938 -13.128906 L 2.835938 0 L 6.800781 0 C 4.398438 -1.363281 2.902344 -4.203125 2.902344 -8.125 Z M 2.902344 -13.0625 "/></g></g></g><g fill="#000000" fill-opacity="1"><g transform="translate(148.807377, 22.655259)"><g><path d="M 8.273438 -7.148438 L 8.273438 -1.40625 C 8.273438 -0.671875 7.691406 -0.0664062 6.953125 -0.0664062 C 6.066406 -0.0664062 5.328125 -0.800781 5.328125 -1.691406 L 5.328125 -13.472656 C 5.328125 -14.363281 6.066406 -15.097656 6.953125 -15.097656 L 7.949219 -15.078125 C 12.457031 -15.054688 9.464844 -8.730469 9.359375 -8.46875 L 12.933594 -13.648438 C 11.179688 -14.644531 9.207031 -15.164062 7.191406 -15.164062 L 6.953125 -15.164062 C 3.359375 -15.164062 0.433594 -12.238281 0.433594 -8.644531 L 0.433594 -6.519531 C 0.433594 -4.789062 1.125 -3.140625 2.339844 -1.90625 C 3.574219 -0.691406 5.21875 0 6.953125 0 C 7.257812 0 7.558594 0.0234375 8.644531 -0.261719 C 9.878906 -0.5625 11.9375 -0.671875 13.171875 -0.261719 L 13.171875 -6.171875 C 10.398438 -5.828125 8.925781 -6.519531 8.273438 -7.148438 Z M 8.273438 -7.148438 "/></g></g></g><g fill="#000000" fill-opacity="1"><g transform="translate(91.231474, 31.861762)"><g><path d="M 3.484375 1.109375 C 2.890625 1.109375 2.363281 0.984375 1.90625 0.734375 C 1.457031 0.484375 1.109375 0.125 0.859375 -0.34375 C 0.617188 -0.8125 0.5 -1.367188 0.5 -2.015625 C 0.5 -2.617188 0.625 -3.160156 0.875 -3.640625 C 1.125 -4.117188 1.476562 -4.488281 1.9375 -4.75 C 2.40625 -5.019531 2.953125 -5.15625 3.578125 -5.15625 C 4.191406 -5.15625 4.722656 -5.03125 5.171875 -4.78125 C 5.628906 -4.539062 5.976562 -4.191406 6.21875 -3.734375 C 6.457031 -3.285156 6.578125 -2.757812 6.578125 -2.15625 C 6.578125 -1.8125 6.519531 -1.503906 6.40625 -1.234375 C 6.289062 -0.960938 6.132812 -0.75 5.9375 -0.59375 C 5.738281 -0.445312 5.523438 -0.375 5.296875 -0.375 C 5.054688 -0.375 4.863281 -0.421875 4.71875 -0.515625 C 4.570312 -0.609375 4.460938 -0.75 4.390625 -0.9375 L 4.328125 -0.9375 C 4.210938 -0.738281 4.066406 -0.59375 3.890625 -0.5 C 3.722656 -0.414062 3.515625 -0.375 3.265625 -0.375 C 3.023438 -0.375 2.804688 -0.4375 2.609375 -0.5625 C 2.421875 -0.6875 2.273438 -0.867188 2.171875 -1.109375 C 2.066406 -1.359375 2.015625 -1.65625 2.015625 -2 C 2.015625 -2.34375 2.066406 -2.632812 2.171875 -2.875 C 2.285156 -3.125 2.441406 -3.3125 2.640625 -3.4375 C 2.847656 -3.5625 3.078125 -3.625 3.328125 -3.625 C 3.535156 -3.625 3.71875 -3.582031 3.875 -3.5 C 4.039062 -3.425781 4.179688 -3.289062 4.296875 -3.09375 L 4.359375 -3.109375 L 4.359375 -3.5625 L 4.875 -3.5625 L 4.875 -1.375 C 4.875 -1.175781 4.90625 -1.03125 4.96875 -0.9375 C 5.039062 -0.851562 5.148438 -0.8125 5.296875 -0.8125 C 5.429688 -0.8125 5.554688 -0.863281 5.671875 -0.96875 C 5.785156 -1.070312 5.875 -1.222656 5.9375 -1.421875 C 6.007812 -1.617188 6.046875 -1.863281 6.046875 -2.15625 C 6.046875 -2.664062 5.953125 -3.109375 5.765625 -3.484375 C 5.578125 -3.859375 5.296875 -4.144531 4.921875 -4.34375 C 4.554688 -4.550781 4.109375 -4.65625 3.578125 -4.65625 C 3.046875 -4.65625 2.59375 -4.546875 2.21875 -4.328125 C 1.84375 -4.109375 1.554688 -3.800781 1.359375 -3.40625 C 1.160156 -3.007812 1.0625 -2.546875 1.0625 -2.015625 C 1.0625 -1.460938 1.15625 -0.988281 1.34375 -0.59375 C 1.539062 -0.207031 1.820312 0.0859375 2.1875 0.296875 C 2.550781 0.503906 2.984375 0.609375 3.484375 0.609375 C 3.722656 0.609375 3.945312 0.582031 4.15625 0.53125 C 4.375 0.476562 4.554688 0.410156 4.703125 0.328125 L 4.765625 0.328125 L 4.9375 0.734375 C 4.8125 0.835938 4.613281 0.925781 4.34375 1 C 4.082031 1.070312 3.796875 1.109375 3.484375 1.109375 Z M 3.453125 -0.859375 C 3.628906 -0.859375 3.785156 -0.898438 3.921875 -0.984375 C 4.054688 -1.066406 4.160156 -1.191406 4.234375 -1.359375 C 4.316406 -1.535156 4.359375 -1.75 4.359375 -2 C 4.359375 -2.25 4.316406 -2.457031 4.234375 -2.625 C 4.160156 -2.800781 4.054688 -2.929688 3.921875 -3.015625 C 3.785156 -3.097656 3.628906 -3.140625 3.453125 -3.140625 C 3.160156 -3.140625 2.9375 -3.046875 2.78125 -2.859375 C 2.632812 -2.679688 2.5625 -2.394531 2.5625 -2 C 2.5625 -1.601562 2.632812 -1.3125 2.78125 -1.125 C 2.9375 -0.945312 3.160156 -0.859375 3.453125 -0.859375 Z M 3.453125 -0.859375 "/></g></g></g><g fill="#000000" fill-opacity="1"><g transform="translate(98.248564, 31.861762)"><g><path d="M 2.015625 0.078125 C 1.703125 0.078125 1.425781 0.00390625 1.1875 -0.140625 C 0.945312 -0.296875 0.757812 -0.523438 0.625 -0.828125 C 0.488281 -1.128906 0.421875 -1.5 0.421875 -1.9375 C 0.421875 -2.382812 0.488281 -2.757812 0.625 -3.0625 C 0.769531 -3.363281 0.96875 -3.585938 1.21875 -3.734375 C 1.46875 -3.890625 1.753906 -3.96875 2.078125 -3.96875 C 2.335938 -3.96875 2.570312 -3.914062 2.78125 -3.8125 C 2.988281 -3.71875 3.164062 -3.554688 3.3125 -3.328125 L 3.390625 -3.34375 L 3.390625 -5.453125 L 3.96875 -5.453125 L 3.96875 0 L 3.390625 0 L 3.390625 -0.5625 L 3.3125 -0.578125 C 3.1875 -0.390625 3.015625 -0.234375 2.796875 -0.109375 C 2.578125 0.015625 2.316406 0.078125 2.015625 0.078125 Z M 2.203125 -0.4375 C 2.554688 -0.4375 2.84375 -0.5625 3.0625 -0.8125 C 3.28125 -1.0625 3.390625 -1.4375 3.390625 -1.9375 C 3.390625 -2.445312 3.28125 -2.828125 3.0625 -3.078125 C 2.84375 -3.328125 2.554688 -3.453125 2.203125 -3.453125 C 1.828125 -3.453125 1.535156 -3.328125 1.328125 -3.078125 C 1.128906 -2.835938 1.03125 -2.457031 1.03125 -1.9375 C 1.03125 -0.9375 1.421875 -0.4375 2.203125 -0.4375 Z M 2.203125 -0.4375 "/></g></g></g><g fill="#000000" fill-opacity="1"><g transform="translate(102.890207, 31.861762)"><g><path d="M 1.921875 0 L 1.203125 0 L 0.25 -3.890625 L 0.8125 -3.890625 L 1.546875 -0.671875 L 1.625 -0.671875 L 2.53125 -3.890625 L 3.140625 -3.890625 L 4.078125 -0.671875 L 4.140625 -0.671875 L 4.875 -3.890625 L 5.421875 -3.890625 L 4.46875 0 L 3.75 0 L 2.859375 -3.015625 L 2.78125 -3.015625 Z M 1.921875 0 "/></g></g></g><g fill="#000000" fill-opacity="1"><g transform="translate(108.557446, 31.861762)"><g><path d="M 3.109375 0 L 0.265625 0 L 0.265625 -0.5 L 2.40625 -3.34375 L 2.375 -3.421875 L 0.359375 -3.421875 L 0.359375 -3.890625 L 3.078125 -3.890625 L 3.078125 -3.390625 L 0.9375 -0.546875 L 0.96875 -0.46875 L 3.109375 -0.46875 Z M 3.109375 0 "/></g></g></g><g fill="#000000" fill-opacity="1"><g transform="translate(111.944402, 31.861762)"><g><path d="M 3.109375 0.8125 L 0 0.8125 L 0 0.34375 L 3.109375 0.34375 Z M 3.109375 0.8125 "/></g></g></g><g fill="#000000" fill-opacity="1"><g transform="translate(115.049405, 31.861762)"><g><path d="M 1.921875 0 L 1.203125 0 L 0.25 -3.890625 L 0.8125 -3.890625 L 1.546875 -0.671875 L 1.625 -0.671875 L 2.53125 -3.890625 L 3.140625 -3.890625 L 4.078125 -0.671875 L 4.140625 -0.671875 L 4.875 -3.890625 L 5.421875 -3.890625 L 4.46875 0 L 3.75 0 L 2.859375 -3.015625 L 2.78125 -3.015625 Z M 1.921875 0 "/></g></g></g><g fill="#000000" fill-opacity="1"><g transform="translate(120.716644, 31.861762)"><g><path d="M 2.234375 0.078125 C 1.867188 0.078125 1.546875 0 1.265625 -0.15625 C 0.992188 -0.3125 0.785156 -0.539062 0.640625 -0.84375 C 0.492188 -1.144531 0.421875 -1.507812 0.421875 -1.9375 C 0.421875 -2.375 0.492188 -2.742188 0.640625 -3.046875 C 0.785156 -3.347656 0.992188 -3.578125 1.265625 -3.734375 C 1.546875 -3.890625 1.867188 -3.96875 2.234375 -3.96875 C 2.597656 -3.96875 2.914062 -3.890625 3.1875 -3.734375 C 3.457031 -3.578125 3.664062 -3.347656 3.8125 -3.046875 C 3.957031 -2.742188 4.03125 -2.375 4.03125 -1.9375 C 4.03125 -1.507812 3.957031 -1.144531 3.8125 -0.84375 C 3.664062 -0.539062 3.457031 -0.3125 3.1875 -0.15625 C 2.914062 0 2.597656 0.078125 2.234375 0.078125 Z M 2.234375 -0.4375 C 2.617188 -0.4375 2.910156 -0.554688 3.109375 -0.796875 C 3.316406 -1.046875 3.421875 -1.425781 3.421875 -1.9375 C 3.421875 -2.457031 3.316406 -2.835938 3.109375 -3.078125 C 2.910156 -3.328125 2.617188 -3.453125 2.234375 -3.453125 C 1.847656 -3.453125 1.550781 -3.328125 1.34375 -3.078125 C 1.132812 -2.828125 1.03125 -2.445312 1.03125 -1.9375 C 1.03125 -1.425781 1.132812 -1.046875 1.34375 -0.796875 C 1.550781 -0.554688 1.847656 -0.4375 2.234375 -0.4375 Z M 2.234375 -0.4375 "/></g></g></g><g fill="#000000" fill-opacity="1"><g transform="translate(125.178538, 31.861762)"><g><path d="M 0.671875 0 L 0.671875 -3.890625 L 1.21875 -3.890625 L 1.21875 -3.28125 L 1.296875 -3.265625 C 1.421875 -3.492188 1.582031 -3.664062 1.78125 -3.78125 C 1.988281 -3.90625 2.238281 -3.96875 2.53125 -3.96875 C 3 -3.96875 3.335938 -3.847656 3.546875 -3.609375 C 3.753906 -3.367188 3.859375 -3 3.859375 -2.5 L 3.859375 0 L 3.28125 0 L 3.28125 -2.484375 C 3.28125 -2.722656 3.25 -2.910156 3.1875 -3.046875 C 3.132812 -3.191406 3.046875 -3.296875 2.921875 -3.359375 C 2.796875 -3.429688 2.628906 -3.46875 2.421875 -3.46875 C 2.066406 -3.46875 1.78125 -3.347656 1.5625 -3.109375 C 1.351562 -2.878906 1.25 -2.507812 1.25 -2 L 1.25 0 Z M 0.671875 0 "/></g></g></g><g fill="#000000" fill-opacity="1"><g transform="translate(129.65453, 31.861762)"><g><path d="M 2 1.65625 C 1.382812 1.65625 0.9375 1.550781 0.65625 1.34375 C 0.375 1.132812 0.234375 0.863281 0.234375 0.53125 C 0.234375 0.3125 0.296875 0.132812 0.421875 0 C 0.554688 -0.125 0.753906 -0.210938 1.015625 -0.265625 L 1.015625 -0.34375 C 0.890625 -0.414062 0.796875 -0.492188 0.734375 -0.578125 C 0.679688 -0.671875 0.65625 -0.78125 0.65625 -0.90625 C 0.65625 -1.0625 0.703125 -1.1875 0.796875 -1.28125 C 0.890625 -1.375 1.03125 -1.445312 1.21875 -1.5 L 1.21875 -1.5625 C 0.789062 -1.789062 0.578125 -2.15625 0.578125 -2.65625 C 0.578125 -2.90625 0.632812 -3.128906 0.75 -3.328125 C 0.863281 -3.523438 1.023438 -3.679688 1.234375 -3.796875 C 1.453125 -3.910156 1.707031 -3.96875 2 -3.96875 C 2.320312 -3.96875 2.59375 -3.894531 2.8125 -3.75 C 2.894531 -3.84375 2.957031 -3.941406 3 -4.046875 C 3.039062 -4.148438 3.066406 -4.265625 3.078125 -4.390625 L 3.15625 -4.4375 L 3.625 -4.328125 C 3.601562 -4.128906 3.539062 -3.960938 3.4375 -3.828125 C 3.34375 -3.691406 3.210938 -3.578125 3.046875 -3.484375 L 3.046875 -3.421875 C 3.171875 -3.316406 3.257812 -3.195312 3.3125 -3.0625 C 3.375 -2.9375 3.40625 -2.785156 3.40625 -2.609375 C 3.40625 -2.359375 3.347656 -2.132812 3.234375 -1.9375 C 3.117188 -1.75 2.953125 -1.597656 2.734375 -1.484375 C 2.523438 -1.367188 2.28125 -1.3125 2 -1.3125 C 1.96875 -1.3125 1.90625 -1.316406 1.8125 -1.328125 C 1.71875 -1.328125 1.648438 -1.328125 1.609375 -1.328125 C 1.484375 -1.328125 1.382812 -1.296875 1.3125 -1.234375 C 1.238281 -1.171875 1.203125 -1.09375 1.203125 -1 C 1.203125 -0.875 1.238281 -0.78125 1.3125 -0.71875 C 1.394531 -0.664062 1.53125 -0.632812 1.71875 -0.625 L 2.640625 -0.59375 C 3.035156 -0.582031 3.328125 -0.488281 3.515625 -0.3125 C 3.710938 -0.144531 3.8125 0.09375 3.8125 0.40625 C 3.8125 0.632812 3.75 0.84375 3.625 1.03125 C 3.5 1.21875 3.300781 1.367188 3.03125 1.484375 C 2.757812 1.597656 2.414062 1.65625 2 1.65625 Z M 2 -1.8125 C 2.269531 -1.8125 2.476562 -1.878906 2.625 -2.015625 C 2.78125 -2.160156 2.859375 -2.363281 2.859375 -2.625 C 2.859375 -2.894531 2.78125 -3.101562 2.625 -3.25 C 2.476562 -3.394531 2.269531 -3.46875 2 -3.46875 C 1.71875 -3.46875 1.503906 -3.394531 1.359375 -3.25 C 1.210938 -3.101562 1.140625 -2.894531 1.140625 -2.625 C 1.140625 -2.363281 1.210938 -2.160156 1.359375 -2.015625 C 1.503906 -1.878906 1.71875 -1.8125 2 -1.8125 Z M 2 1.15625 C 2.289062 1.15625 2.523438 1.125 2.703125 1.0625 C 2.890625 1 3.019531 0.914062 3.09375 0.8125 C 3.175781 0.707031 3.21875 0.585938 3.21875 0.453125 C 3.21875 0.335938 3.195312 0.242188 3.15625 0.171875 C 3.113281 0.109375 3.039062 0.0546875 2.9375 0.015625 C 2.84375 -0.015625 2.710938 -0.0351562 2.546875 -0.046875 L 1.671875 -0.09375 L 1.546875 -0.09375 C 1.066406 -0.0820312 0.828125 0.109375 0.828125 0.484375 C 0.828125 0.929688 1.21875 1.15625 2 1.15625 Z M 2 1.15625 "/></g></g></g></svg>